<?xml version="1.0" standalone="no"?>
<!DOCTYPE svg PUBLIC "-//W3C//DTD SVG 20010904//EN"
 "http://www.w3.org/TR/2001/REC-SVG-20010904/DTD/svg10.dtd">
<svg version="1.0" xmlns="http://www.w3.org/2000/svg"
 width="512.000000pt" height="512.000000pt" viewBox="0 0 512.000000 512.000000"
 preserveAspectRatio="xMidYMid meet">
<metadata>
Created by potrace 1.14, written by Peter Selinger 2001-2017
</metadata>
<g transform="translate(0.000000,512.000000) scale(0.100000,-0.100000)"
fill="#000000" stroke="none">
<path d="M235 5106 c-95 -30 -162 -88 -204 -176 l-26 -55 0 -2315 0 -2315 26
-55 c34 -70 89 -126 159 -159 l55 -26 2320 0 2320 0 50 27 c68 35 122 92 154
158 l26 55 0 2315 0 2315 -26 55 c-34 72 -90 126 -164 161 l-60 28 -2295 0
c-1826 0 -2303 -3 -2335 -13z m4617 -146 c45 -13 105 -77 113 -122 3 -18 4
-1055 3 -2303 -3 -2133 -4 -2272 -20 -2297 -10 -15 -34 -39 -55 -55 l-36 -28
-2286 -3 -2285 -2 -40 21 c-45 24 -60 39 -81 88 -13 29 -15 318 -15 2295 0
1447 4 2273 10 2295 12 41 54 88 95 107 25 11 425 13 2295 14 1502 0 2277 -4
2302 -10z"/>
<path d="M1054 4372 c-54 -8 -76 -84 -36 -124 18 -19 33 -22 116 -23 52 0 98
-4 102 -8 5 -5 10 -2673 5 -2804 -1 -21 -5 -22 -96 -21 -107 0 -139 -12 -148
-58 -7 -39 11 -72 47 -83 17 -5 150 -9 294 -8 l264 2 19 24 c22 27 24 49 7 85
-15 33 -34 39 -144 38 l-92 0 0 1148 0 1148 272 269 271 269 770 0 770 -1 3
-176 2 -177 -27 -7 c-106 -25 -212 -114 -264 -221 -56 -114 -51 -272 14 -375
54 -88 135 -153 227 -184 l50 -17 0 -71 0 -72 -245 -245 c-206 -206 -246 -251
-250 -279 -7 -58 53 -99 106 -70 11 5 100 91 198 190 99 98 182 179 185 179 4
0 6 -118 6 -262 l-1 -262 -242 -243 c-133 -133 -246 -252 -251 -263 -7 -16 -5
-30 8 -55 19 -35 55 -49 90 -35 12 5 122 110 246 234 l225 226 230 -230 c255
-254 266 -261 317 -209 24 24 29 35 23 57 -4 17 -94 115 -251 272 l-244 245 2
265 3 264 193 -192 c122 -122 200 -192 213 -192 59 0 101 58 77 105 -6 11
-119 128 -250 259 l-239 239 3 75 3 75 42 12 c104 31 194 112 246 223 29 60
32 77 32 160 0 87 -2 95 -24 113 -29 24 -69 24 -100 0 -21 -16 -24 -26 -22
-81 5 -169 -109 -288 -270 -283 -83 3 -157 48 -207 127 -35 56 -41 173 -11
232 58 118 184 176 304 139 68 -20 82 -19 110 10 49 48 18 113 -64 135 l-41
11 2 177 3 176 98 1 c83 1 100 4 117 20 30 31 32 71 5 103 l-23 27 -1379 0
c-758 0 -1388 -1 -1399 -3z m656 -150 c0 -6 -307 -312 -313 -312 -5 0 -8 300
-2 309 3 6 315 9 315 3z"/>
<path d="M1043 639 c-49 -18 -62 -84 -25 -121 21 -21 29 -22 297 -21 274 0
276 0 300 23 30 28 32 69 6 101 l-19 24 -270 1 c-148 0 -278 -3 -289 -7z"/>
<path d="M1863 637 c-41 -18 -51 -76 -20 -113 l24 -27 254 -1 c140 -1 267 1
283 4 67 12 86 104 28 134 -32 16 -534 19 -569 3z"/>
<path d="M2681 630 c-34 -25 -37 -72 -8 -105 l24 -28 278 0 278 0 24 27 c12
15 23 33 23 41 0 24 -22 63 -39 71 -9 4 -138 8 -288 9 -231 1 -275 -1 -292
-15z"/>
<path d="M3522 639 c-25 -9 -42 -39 -42 -71 0 -28 33 -68 58 -69 90 -5 495 -3
521 3 64 13 87 69 46 116 l-23 27 -270 1 c-148 0 -279 -3 -290 -7z"/>
</g>
</svg>
